<svg xmlns="http://www.w3.org/2000/svg" version="1.1" xmlns:xlink="http://www.w3.org/1999/xlink" xmlns:svgjs="http://svgjs.com/svgjs" width="1440" height="543" preserveAspectRatio="none" viewBox="0 0 1440 543"><g mask="url(&quot;#SvgjsMask1034&quot;)" fill="none"><rect width="1440" height="543" x="0" y="0" fill="#0e2a47"></rect><path d="M0 175.63L10 203.94L20 156.44L30 97.06L40 155.32L50 109.98L60 82.65L70 36.12L80 20.6L90 47.73L100 83.06L110 57.58L120 62.54L130 34.83L140 97.86L150 68.77L160 70.94L170 116.11L180 113.47L190 82.34L200 145.87L210 80.62L220 143.91L230 147.52L240 132.25L250 191.03L260 258.35L270 313.63L280 295.11L290 299.66L300 278.36L310 211.74L320 220.77L330 158.67L340 184.47L350 193.69L360 226.25L370 276.19L380 227.31L390 209.72L400 155.15L410 106.92L420 102.4L430 127.44L440 93.03L450 101.86L460 35.55L470 9.71L480 53.93L490 107.84L500 127.94L510 94.78L520 153.3L530 166.49L540 158.74L550 171.28L560 178.81L570 232.91L580 294.02L590 286.87L600 339.37L610 284.67L620 289.1L630 265.54L640 323.43L650 327.61L660 328.48L670 319.87L680 384.08L690 386.74L700 443.92L710 402.42L720 421.86L730 359.74L740 304.31L750 344.7L760 279.75L770 268.78L780 333.71L790 310.75L800 253L810 215.22L820 170.01L830 123.42L840 101.28L850 123.2L860 80.93L870 49.15L880 82.46L890 41.01L900 23.37L910 89.85L920 146.37L930 115.9L940 55.61L950 60.3L960 86.71L970 46.49L980 3.15L990 24.36L1000 27.16L1010 51.25L1020 55.55L1030 73.91L1040 133.44L1050 190.91L1060 159.88L1070 123.06L1080 188.34L1090 205.44L1100 183.75L1110 148.05L1120 185.87L1130 134.13L1140 67.8L1150 72.63L1160 12.44L1170 38.95L1180 2.29L1190 67.84L1200 97.87L1210 87.49L1220 80L1230 126.22L1240 141.33L1250 154.25L1260 102.09L1270 87.63L1280 104.61L1290 136.61L1300 174.88L1310 120.31L1320 108.68L1330 76.26L1340 119.51L1350 81.46L1360 86.43L1370 92.52L1380 104.96L1390 113.59L1400 159.68L1410 118.49L1420 182.88L1430 208.05L1440 248.63" stroke="#224b75" stroke-width="2"></path><path d="M0 175.63L10 203.94L20 156.44L30 97.06L40 155.32L50 109.98L60 82.65L70 36.12L80 20.6L90 47.73L100 83.06L110 57.58L120 62.54L130 34.83L140 97.86L150 68.77L160 70.94L170 116.11L180 113.47L190 82.34L200 145.87L210 80.62L220 143.91L230 147.52L240 132.25L250 191.03L260 258.35L270 313.63L280 295.11L290 299.66L300 278.36L310 211.74L320 220.77L330 158.67L340 184.47L350 193.69L360 226.25L370 276.19L380 227.31L390 209.72L400 155.15L410 106.92L420 102.4L430 127.44L440 93.03L450 101.86L460 35.55L470 9.71L480 53.93L490 107.84L500 127.94L510 94.78L520 153.3L530 166.49L540 158.74L550 171.28L560 178.81L570 232.91L580 294.02L590 286.87L600 339.37L610 284.67L620 289.1L630 265.54L640 323.43L650 327.61L660 328.48L670 319.87L680 384.08L690 386.74L700 443.92L710 402.42L720 421.86L730 359.74L740 304.31L750 344.7L760 279.75L770 268.78L780 333.71L790 310.75L800 253L810 215.22L820 170.01L830 123.42L840 101.28L850 123.2L860 80.93L870 49.15L880 82.46L890 41.01L900 23.37L910 89.85L920 146.37L930 115.9L940 55.61L950 60.3L960 86.71L970 46.49L980 3.15L990 24.36L1000 27.16L1010 51.25L1020 55.55L1030 73.91L1040 133.44L1050 190.91L1060 159.88L1070 123.06L1080 188.34L1090 205.44L1100 183.75L1110 148.05L1120 185.87L1130 134.13L1140 67.8L1150 72.63L1160 12.44L1170 38.95L1180 2.29L1190 67.84L1200 97.87L1210 87.49L1220 80L1230 126.22L1240 141.33L1250 154.25L1260 102.09L1270 87.63L1280 104.61L1290 136.61L1300 174.88L1310 120.31L1320 108.68L1330 76.26L1340 119.51L1350 81.46L1360 86.43L1370 92.52L1380 104.96L1390 113.59L1400 159.68L1410 118.49L1420 182.88L1430 208.05L1440 248.63L1440 543L0 543z" fill="url(#SvgjsLinearGradient1035)"></path></g><defs><mask id="SvgjsMask1034"><rect width="1440" height="543" fill="#ffffff"></rect></mask><linearGradient x1="50%" y1="0%" x2="50%" y2="100%" id="SvgjsLinearGradient1035"><stop stop-opacity="0.65" stop-color="#224b75" offset="0"></stop><stop stop-opacity="0" stop-color="#508dcc" offset="0.8"></stop></linearGradient></defs></svg>